<?xml version="1.0" standalone="no"?>
<!DOCTYPE svg PUBLIC "-//W3C//DTD SVG 20010904//EN"
 "http://www.w3.org/TR/2001/REC-SVG-20010904/DTD/svg10.dtd">
<svg version="1.0" xmlns="http://www.w3.org/2000/svg"
 width="585.000000pt" height="420.000000pt" viewBox="0 0 585.000000 420.000000"
 preserveAspectRatio="xMidYMid meet">

<g transform="translate(0.000000,420.000000) scale(0.100000,-0.100000)"
fill="#000000" stroke="none">
<path d="M2871 3263 c7 -10 14 -20 16 -22 1 -1 7 0 13 4 14 9 -6 35 -27 35
-13 0 -13 -3 -2 -17z"/>
<path d="M2740 3245 c0 -9 5 -15 11 -13 6 2 11 8 11 13 0 5 -5 11 -11 13 -6 2
-11 -4 -11 -13z"/>
<path d="M3172 3234 c-17 -12 -21 -19 -13 -27 8 -8 16 -7 27 5 25 25 14 42
-14 22z"/>
<path d="M2762 3175 c-7 -15 -8 -25 -2 -25 13 0 32 38 21 44 -4 3 -13 -6 -19
-19z"/>
<path d="M3455 3189 c-11 -17 0 -20 21 -4 17 13 17 14 2 15 -9 0 -20 -5 -23
-11z"/>
<path d="M3682 3138 c-15 -15 -16 -48 -2 -48 6 0 13 7 17 16 3 8 11 13 18 10
19 -7 27 5 14 21 -14 16 -31 17 -47 1z"/>
<path d="M2275 3130 c-3 -5 -1 -10 4 -10 6 0 11 5 11 10 0 6 -2 10 -4 10 -3 0
-8 -4 -11 -10z"/>
<path d="M3445 3110 c-3 -5 -1 -10 4 -10 6 0 11 5 11 10 0 6 -2 10 -4 10 -3 0
-8 -4 -11 -10z"/>
<path d="M3335 3090 c3 -5 8 -10 11 -10 2 0 4 5 4 10 0 6 -5 10 -11 10 -5 0
-7 -4 -4 -10z"/>
<path d="M3110 3080 c0 -5 5 -10 10 -10 6 0 10 5 10 10 0 6 -4 10 -10 10 -5 0
-10 -4 -10 -10z"/>
<path d="M2150 3050 c0 -5 5 -10 10 -10 6 0 10 5 10 10 0 6 -4 10 -10 10 -5 0
-10 -4 -10 -10z"/>
<path d="M3060 3052 c0 -6 5 -14 11 -17 6 -4 8 -13 5 -21 -3 -8 -1 -14 3 -14
19 0 19 29 0 46 -10 9 -19 12 -19 6z"/>
<path d="M4280 3050 c0 -5 5 -10 10 -10 6 0 10 5 10 10 0 6 -4 10 -10 10 -5 0
-10 -4 -10 -10z"/>
<path d="M1875 3010 c-3 -5 -1 -10 4 -10 6 0 11 5 11 10 0 6 -2 10 -4 10 -3 0
-8 -4 -11 -10z"/>
<path d="M2160 3005 c7 -9 15 -13 17 -11 7 7 -7 26 -19 26 -6 0 -6 -6 2 -15z"/>
<path d="M4161 3004 c13 -16 29 -19 29 -5 0 5 -9 11 -21 14 -16 4 -18 3 -8 -9z"/>
<path d="M1918 3003 c7 -3 16 -2 19 1 4 3 -2 6 -13 5 -11 0 -14 -3 -6 -6z"/>
<path d="M3040 2990 c0 -5 5 -10 10 -10 6 0 10 5 10 10 0 6 -4 10 -10 10 -5 0
-10 -4 -10 -10z"/>
<path d="M1476 2981 c-4 -7 -5 -15 -2 -18 9 -9 19 4 14 18 -4 11 -6 11 -12 0z"/>
<path d="M1533 2955 c-3 -9 -3 -19 1 -22 3 -4 6 1 6 10 0 8 6 18 13 20 9 4 9
6 -1 6 -7 1 -15 -6 -19 -14z"/>
<path d="M2155 2960 c3 -5 11 -10 16 -10 6 0 7 5 4 10 -3 6 -11 10 -16 10 -6
0 -7 -4 -4 -10z"/>
<path d="M1891 2944 c0 -11 3 -14 6 -6 3 7 2 16 -1 19 -3 4 -6 -2 -5 -13z"/>
<path d="M2201 2944 c0 -11 3 -14 6 -6 3 7 2 16 -1 19 -3 4 -6 -2 -5 -13z"/>
<path d="M5007 2953 c-12 -12 -7 -22 8 -17 8 4 15 10 15 15 0 11 -14 12 -23 2z"/>
<path d="M2115 2940 c-3 -5 -1 -10 4 -10 6 0 11 5 11 10 0 6 -2 10 -4 10 -3 0
-8 -4 -11 -10z"/>
<path d="M2270 2940 c0 -5 5 -10 11 -10 5 0 7 5 4 10 -3 6 -8 10 -11 10 -2 0
-4 -4 -4 -10z"/>
<path d="M2505 2929 c-4 -11 -4 -23 0 -27 7 -7 25 17 25 36 0 20 -18 14 -25
-9z"/>
<path d="M4255 2930 c-10 -11 -13 -20 -7 -20 6 0 16 9 22 20 6 11 9 20 7 20
-2 0 -12 -9 -22 -20z"/>
<path d="M2230 2914 c0 -8 5 -12 10 -9 6 3 10 10 10 16 0 5 -4 9 -10 9 -5 0
-10 -7 -10 -16z"/>
<path d="M3640 2921 c0 -5 7 -11 15 -15 8 -3 15 -1 15 3 0 5 -7 11 -15 15 -8
3 -15 1 -15 -3z"/>
<path d="M940 2899 c0 -11 4 -18 10 -14 5 3 7 12 3 20 -7 21 -13 19 -13 -6z"/>
<path d="M4770 2905 c-9 -11 -10 -19 -3 -26 8 -8 13 -5 18 11 4 12 5 24 2 26
-2 2 -10 -3 -17 -11z"/>
<path d="M3515 2901 c-6 -11 9 -23 19 -14 9 9 7 23 -3 23 -6 0 -12 -4 -16 -9z"/>
<path d="M3745 2900 c3 -5 11 -10 16 -10 6 0 7 5 4 10 -3 6 -11 10 -16 10 -6
0 -7 -4 -4 -10z"/>
<path d="M4851 2894 c0 -11 3 -14 6 -6 3 7 2 16 -1 19 -3 4 -6 -2 -5 -13z"/>
<path d="M3920 2889 c0 -5 5 -7 10 -4 6 3 10 8 10 11 0 2 -4 4 -10 4 -5 0 -10
-5 -10 -11z"/>
<path d="M1845 2880 c-3 -5 -1 -10 4 -10 6 0 11 5 11 10 0 6 -2 10 -4 10 -3 0
-8 -4 -11 -10z"/>
<path d="M1947 2883 c-4 -3 -7 -11 -7 -17 0 -6 5 -5 12 2 6 6 9 14 7 17 -3 3
-9 2 -12 -2z"/>
<path d="M2326 2877 c3 -10 9 -15 12 -12 3 3 0 11 -7 18 -10 9 -11 8 -5 -6z"/>
<path d="M4155 2880 c3 -5 8 -10 11 -10 2 0 4 5 4 10 0 6 -5 10 -11 10 -5 0
-7 -4 -4 -10z"/>
<path d="M4870 2866 c0 -14 5 -28 10 -31 6 -3 10 0 10 9 0 8 3 21 6 30 4 11 1
16 -10 16 -10 0 -16 -9 -16 -24z"/>
<path d="M655 2870 c-3 -5 -1 -10 4 -10 6 0 11 5 11 10 0 6 -2 10 -4 10 -3 0
-8 -4 -11 -10z"/>
<path d="M4230 2869 c0 -5 5 -7 10 -4 6 3 10 8 10 11 0 2 -4 4 -10 4 -5 0 -10
-5 -10 -11z"/>
<path d="M1695 2860 c-3 -5 -1 -10 4 -10 6 0 11 5 11 10 0 6 -2 10 -4 10 -3 0
-8 -4 -11 -10z"/>
<path d="M2455 2860 c3 -5 8 -10 11 -10 2 0 4 5 4 10 0 6 -5 10 -11 10 -5 0
-7 -4 -4 -10z"/>
<path d="M2580 2861 c0 -6 5 -13 10 -16 6 -3 10 1 10 9 0 9 -4 16 -10 16 -5 0
-10 -4 -10 -9z"/>
<path d="M850 2850 c0 -5 5 -10 10 -10 6 0 10 5 10 10 0 6 -4 10 -10 10 -5 0
-10 -4 -10 -10z"/>
<path d="M4760 2830 c0 -5 5 -10 11 -10 5 0 7 5 4 10 -3 6 -8 10 -11 10 -2 0
-4 -4 -4 -10z"/>
<path d="M4847 2823 c-4 -3 -7 -11 -7 -17 0 -6 5 -5 12 2 6 6 9 14 7 17 -3 3
-9 2 -12 -2z"/>
<path d="M4894 2806 c-10 -27 2 -43 14 -19 8 14 9 24 2 28 -6 3 -13 -1 -16 -9z"/>
<path d="M1911 2792 c-13 -25 -14 -32 -2 -32 9 0 23 41 16 48 -2 2 -8 -5 -14
-16z"/>
<path d="M4600 2799 c0 -5 5 -7 10 -4 6 3 10 8 10 11 0 2 -4 4 -10 4 -5 0 -10
-5 -10 -11z"/>
<path d="M4730 2800 c0 -5 5 -10 10 -10 6 0 10 5 10 10 0 6 -4 10 -10 10 -5 0
-10 -4 -10 -10z"/>
<path d="M780 2770 c0 -5 5 -10 10 -10 6 0 10 5 10 10 0 6 -4 10 -10 10 -5 0
-10 -4 -10 -10z"/>
<path d="M4345 2770 c3 -5 8 -10 11 -10 2 0 4 5 4 10 0 6 -5 10 -11 10 -5 0
-7 -4 -4 -10z"/>
<path d="M2680 2759 c0 -5 5 -7 10 -4 6 3 10 8 10 11 0 2 -4 4 -10 4 -5 0 -10
-5 -10 -11z"/>
<path d="M3695 2760 c3 -5 10 -10 16 -10 5 0 9 5 9 10 0 6 -7 10 -16 10 -8 0
-12 -4 -9 -10z"/>
<path d="M2032 2749 c2 -7 10 -15 17 -17 8 -3 12 1 9 9 -2 7 -10 15 -17 17 -8
3 -12 -1 -9 -9z"/>
<path d="M3258 2753 c7 -3 16 -2 19 1 4 3 -2 6 -13 5 -11 0 -14 -3 -6 -6z"/>
<path d="M5135 2751 c-3 -5 -1 -12 5 -16 5 -3 10 1 10 9 0 18 -6 21 -15 7z"/>
<path d="M2135 2730 c3 -5 8 -10 11 -10 2 0 4 5 4 10 0 6 -5 10 -11 10 -5 0
-7 -4 -4 -10z"/>
<path d="M4768 2733 c7 -3 16 -2 19 1 4 3 -2 6 -13 5 -11 0 -14 -3 -6 -6z"/>
<path d="M2235 2721 c-6 -11 9 -23 19 -14 9 9 7 23 -3 23 -6 0 -12 -4 -16 -9z"/>
<path d="M3360 2699 c0 -18 2 -19 15 -9 8 7 15 16 15 21 0 5 -7 9 -15 9 -9 0
-15 -9 -15 -21z"/>
<path d="M2180 2680 c0 -5 5 -10 10 -10 6 0 10 5 10 10 0 6 -4 10 -10 10 -5 0
-10 -4 -10 -10z"/>
<path d="M2513 2669 c-105 -25 -146 -171 -74 -261 l19 -23 25 23 c23 22 43 74
49 131 4 32 32 50 56 35 9 -6 17 -16 17 -22 0 -6 3 -14 8 -18 4 -4 7 -16 7
-26 0 -20 12 -22 74 -11 36 6 38 7 33 38 -8 51 -34 102 -59 118 -31 21 -104
28 -155 16z"/>
<path d="M701 2358 c0 -297 6 -379 24 -335 5 12 19 17 51 17 l44 0 0 123 c0
83 4 129 13 140 10 15 19 -2 60 -120 41 -118 52 -140 75 -151 17 -8 28 -9 30
-2 5 14 59 12 65 -2 3 -7 5 -4 6 7 0 11 -15 58 -33 105 -23 59 -30 87 -22 92
8 6 7 8 -2 8 -7 0 -19 18 -28 41 -11 26 -21 38 -30 35 -8 -3 -20 2 -26 11 -7
8 -26 28 -41 44 -34 34 -32 59 6 77 26 13 31 12 53 -9 19 -18 24 -19 24 -7 0
9 20 64 45 124 25 59 45 109 45 111 0 2 -28 3 -62 1 l-62 -3 -56 -130 -55
-129 -3 132 -3 132 -59 0 -60 0 1 -312z"/>
<path d="M3352 2663 c-10 -4 -10 -8 -1 -19 13 -16 29 -10 29 12 0 15 -6 16
-28 7z"/>
<path d="M3640 2569 c0 -92 -2 -101 -17 -94 -10 4 -26 9 -35 12 -10 3 -20 14
-23 24 -8 23 -25 25 -25 4 0 -9 -10 -19 -22 -24 -53 -20 -77 -83 -78 -199 0
-46 -3 -61 -12 -56 -8 5 -9 2 -3 -12 4 -10 14 -44 21 -74 19 -79 33 -99 75
-112 32 -9 44 -8 78 9 32 16 41 17 41 7 0 -10 16 -14 60 -14 l60 0 0 315 0
315 -60 0 -60 0 0 -101z m-16 -155 c12 -5 15 -31 15 -150 l1 -144 -26 -6 c-14
-4 -30 -2 -37 5 -17 17 -23 191 -6 202 11 7 12 11 1 17 -12 8 -9 49 5 75 5 8
26 9 47 1z"/>
<path d="M4720 2660 c0 -5 4 -10 9 -10 6 0 13 5 16 10 3 6 -1 10 -9 10 -9 0
-16 -4 -16 -10z"/>
<path d="M3080 2635 c0 -8 5 -15 10 -15 6 0 10 7 10 15 0 8 -4 15 -10 15 -5 0
-10 -7 -10 -15z"/>
<path d="M3550 2626 c0 -9 5 -16 10 -16 6 0 10 4 10 9 0 6 -4 13 -10 16 -5 3
-10 -1 -10 -9z"/>
<path d="M2200 2620 c0 -5 4 -10 9 -10 6 0 13 5 16 10 3 6 -1 10 -9 10 -9 0
-16 -4 -16 -10z"/>
<path d="M2820 2560 c0 -68 -1 -70 -26 -70 -23 0 -25 -3 -22 -37 2 -31 7 -39
26 -41 24 -4 30 -18 10 -25 -10 -4 -10 -7 0 -18 8 -9 12 -52 13 -133 0 -69 6
-136 13 -155 13 -36 31 -43 114 -45 23 0 42 -5 42 -11 0 -5 5 -3 10 5 19 29
10 120 -12 120 -5 0 -6 -4 -3 -10 7 -11 -6 -13 -29 -4 -13 5 -16 27 -16 135
l0 130 30 6 c17 3 30 12 30 20 0 8 7 22 16 31 15 15 15 16 -2 23 -11 4 -31 8
-46 8 -26 1 -27 3 -30 69 l-3 67 -57 3 -58 3 0 -71z"/>
<path d="M4590 2560 c0 -68 -1 -70 -26 -70 -23 0 -25 -3 -22 -37 2 -30 8 -39
25 -41 21 -3 22 -8 25 -162 3 -150 4 -160 26 -183 27 -29 76 -41 127 -31 34 6
35 8 35 50 0 39 -2 44 -23 44 -42 0 -47 16 -47 151 l0 128 33 3 c29 3 32 6 35
41 3 36 3 37 -32 37 l-36 0 0 70 0 70 -60 0 -60 0 0 -70z"/>
<path d="M4400 2600 c0 -5 8 -6 17 -3 12 5 15 2 10 -10 -4 -11 -1 -17 7 -17 8
0 21 -3 30 -6 27 -10 18 22 -9 34 -31 15 -55 15 -55 2z"/>
<path d="M2120 2590 c0 -5 5 -10 10 -10 6 0 10 5 10 10 0 6 -4 10 -10 10 -5 0
-10 -4 -10 -10z"/>
<path d="M3500 2590 c0 -5 5 -10 11 -10 5 0 7 5 4 10 -3 6 -8 10 -11 10 -2 0
-4 -4 -4 -10z"/>
<path d="M3505 2510 c-3 -5 -1 -10 4 -10 6 0 11 5 11 10 0 6 -2 10 -4 10 -3 0
-8 -4 -11 -10z"/>
<path d="M1191 2483 c-69 -36 -76 -57 -76 -218 0 -163 7 -182 81 -221 32 -17
47 -19 83 -12 80 15 115 50 126 131 l7 47 -60 0 -61 0 -3 -42 c-3 -38 -6 -43
-28 -43 -24 0 -25 3 -28 68 l-3 67 92 0 92 0 -5 68 c-6 78 -22 117 -60 145
-37 28 -114 33 -157 10z m97 -120 c3 -42 2 -43 -27 -43 -29 0 -31 2 -31 38 0
45 6 54 35 50 16 -2 21 -12 23 -45z"/>
<path d="M1544 2482 c-62 -30 -74 -64 -74 -219 0 -106 3 -134 19 -163 39 -74
166 -91 233 -31 26 23 32 37 36 84 l4 57 -55 0 -56 0 -3 -42 c-2 -36 -7 -44
-25 -46 -28 -4 -43 28 -41 93 l1 45 88 0 89 0 0 65 c0 115 -34 161 -126 171
-36 3 -60 0 -90 -14z m104 -119 l3 -43 -37 0 -36 0 7 37 c9 50 13 55 38 51 18
-2 23 -11 25 -45z"/>
<path d="M1987 2481 c-29 -15 -37 -16 -37 -5 0 10 -15 14 -60 14 -59 0 -60 -1
-61 -27 -2 -98 3 -559 7 -565 3 -4 30 -8 60 -8 l54 0 0 89 0 89 37 -19 c46
-23 71 -24 102 -3 44 32 52 72 50 255 -2 117 -6 168 -13 166 -6 -2 -22 4 -35
14 -30 24 -57 24 -104 0z m31 -207 c3 -152 -4 -173 -48 -159 -19 6 -20 14 -20
149 0 78 3 146 7 150 4 4 19 6 33 4 l25 -3 3 -141z"/>
<path d="M3903 2481 c-67 -31 -78 -62 -78 -216 0 -143 10 -178 62 -212 38 -25
139 -24 177 0 33 22 56 72 56 122 l0 35 -54 0 -55 0 -3 -42 c-2 -32 -8 -44
-21 -46 -33 -7 -47 17 -47 79 l0 59 90 0 90 0 0 66 c0 73 -20 127 -55 150 -38
25 -114 27 -162 5z m101 -87 c3 -9 6 -29 6 -45 0 -27 -3 -29 -35 -29 -31 0
-35 3 -35 26 0 53 48 89 64 48z"/>
<path d="M4380 2493 c-8 -3 -27 -15 -42 -25 -28 -19 -28 -19 -28 1 0 19 -6 21
-60 21 l-60 0 0 -225 0 -225 60 0 60 0 0 180 0 180 24 6 c14 3 30 3 35 -1 7
-4 11 -70 11 -186 l0 -179 60 0 60 0 0 185 c0 138 -4 194 -14 220 -20 47 -60
65 -106 48z"/>
<path d="M4905 2486 c-52 -24 -70 -52 -70 -113 l0 -55 83 -78 c83 -79 94 -98
68 -119 -18 -15 -46 -2 -73 34 -18 25 -19 26 -56 10 -42 -18 -42 -16 -22 -55
21 -41 67 -70 122 -76 66 -7 111 17 139 75 29 61 17 88 -78 181 -83 80 -101
120 -54 120 30 0 63 -40 44 -51 -7 -5 -10 -11 -7 -14 8 -7 99 32 99 42 0 17
-40 73 -64 88 -35 23 -95 28 -131 11z"/>
<path d="M3070 2444 c0 -27 -4 -43 -10 -39 -5 3 -10 2 -10 -4 0 -5 4 -13 10
-16 6 -4 10 -63 9 -145 0 -158 8 -189 57 -203 28 -8 55 -1 117 31 4 2 7 -3 7
-12 0 -13 12 -16 60 -16 l60 0 0 225 0 225 -60 0 -60 0 -1 -142 c-1 -232 0
-223 -31 -226 -34 -4 -39 22 -8 38 22 12 17 35 -6 26 -11 -4 -14 11 -14 82 0
55 4 92 12 100 9 9 9 12 -1 12 -7 0 -12 11 -11 28 6 82 6 82 -60 82 l-60 0 0
-46z"/>
<path d="M3380 2480 c0 -5 5 -10 10 -10 6 0 10 5 10 10 0 6 -4 10 -10 10 -5 0
-10 -4 -10 -10z"/>
<path d="M3405 2420 c-3 -5 -1 -10 4 -10 6 0 11 5 11 10 0 6 -2 10 -4 10 -3 0
-8 -4 -11 -10z"/>
<path d="M2633 2344 c-33 -50 -40 -86 -25 -124 19 -51 3 -93 -35 -88 -28 3
-44 26 -60 83 l-8 31 -53 -9 -53 -9 6 -41 c16 -95 62 -141 149 -153 25 -4 46
-11 46 -16 0 -5 5 -6 10 -3 6 4 8 11 5 16 -4 5 1 9 11 9 14 0 14 -3 4 -15 -10
-12 -10 -19 -2 -27 9 -9 13 -4 18 19 3 18 17 36 34 46 65 39 79 148 31 232
-43 75 -56 83 -78 49z"/>
<path d="M560 2340 c0 -5 5 -10 10 -10 6 0 10 5 10 10 0 6 -4 10 -10 10 -5 0
-10 -4 -10 -10z"/>
<path d="M2730 2333 c0 -29 17 -50 30 -37 9 9 8 17 -2 33 -16 26 -28 27 -28 4z"/>
<path d="M2535 2230 c-3 -5 -1 -10 4 -10 6 0 11 5 11 10 0 6 -2 10 -4 10 -3 0
-8 -4 -11 -10z"/>
<path d="M2785 2210 c-3 -5 -1 -10 4 -10 6 0 11 5 11 10 0 6 -2 10 -4 10 -3 0
-8 -4 -11 -10z"/>
<path d="M2780 2080 c0 -5 5 -10 10 -10 6 0 10 5 10 10 0 6 -4 10 -10 10 -5 0
-10 -4 -10 -10z"/>
<path d="M2740 2070 c0 -5 5 -10 10 -10 6 0 10 5 10 10 0 6 -4 10 -10 10 -5 0
-10 -4 -10 -10z"/>
<path d="M2730 2030 c0 -5 5 -10 11 -10 5 0 7 5 4 10 -3 6 -8 10 -11 10 -2 0
-4 -4 -4 -10z"/>
<path d="M2770 2025 c0 -9 5 -15 11 -13 6 2 11 8 11 13 0 5 -5 11 -11 13 -6 2
-11 -4 -11 -13z"/>
<path d="M900 2021 c0 -6 5 -13 10 -16 6 -3 10 1 10 9 0 9 -4 16 -10 16 -5 0
-10 -4 -10 -9z"/>
<path d="M685 2010 c-3 -5 -1 -10 4 -10 6 0 11 5 11 10 0 6 -2 10 -4 10 -3 0
-8 -4 -11 -10z"/>
<path d="M930 2000 c0 -5 5 -10 10 -10 6 0 10 5 10 10 0 6 -4 10 -10 10 -5 0
-10 -4 -10 -10z"/>
<path d="M1080 1990 c0 -5 5 -10 10 -10 6 0 10 5 10 10 0 6 -4 10 -10 10 -5 0
-10 -4 -10 -10z"/>
<path d="M3685 1979 c-4 -6 -5 -11 -4 -12 2 -2 11 -8 19 -14 12 -9 15 -7 16
13 2 25 -19 33 -31 13z"/>
<path d="M735 1970 c-3 -5 -1 -10 4 -10 6 0 11 5 11 10 0 6 -2 10 -4 10 -3 0
-8 -4 -11 -10z"/>
<path d="M2897 1973 c-12 -12 -7 -22 8 -17 8 4 15 10 15 15 0 11 -14 12 -23 2z"/>
<path d="M3216 1972 c-3 -6 -1 -14 5 -17 15 -10 25 3 12 16 -7 7 -13 7 -17 1z"/>
<path d="M2966 1948 c-11 -15 -13 -25 -5 -33 12 -12 29 10 29 38 0 23 -6 22
-24 -5z"/>
<path d="M3050 1950 c0 -5 7 -10 15 -10 8 0 15 5 15 10 0 6 -7 10 -15 10 -8 0
-15 -4 -15 -10z"/>
<path d="M3605 1952 c-27 -5 -39 -18 -23 -25 8 -2 22 1 33 9 22 16 18 22 -10
16z"/>
<path d="M3850 1929 c0 -5 5 -7 10 -4 6 3 10 8 10 11 0 2 -4 4 -10 4 -5 0 -10
-5 -10 -11z"/>
<path d="M3270 1920 c0 -5 5 -10 11 -10 5 0 7 5 4 10 -3 6 -8 10 -11 10 -2 0
-4 -4 -4 -10z"/>
<path d="M3695 1920 c-3 -5 -1 -10 4 -10 6 0 11 5 11 10 0 6 -2 10 -4 10 -3 0
-8 -4 -11 -10z"/>
<path d="M3070 1899 c0 -5 5 -7 10 -4 6 3 10 8 10 11 0 2 -4 4 -10 4 -5 0 -10
-5 -10 -11z"/>
<path d="M3725 1900 c-3 -5 -1 -10 4 -10 6 0 11 5 11 10 0 6 -2 10 -4 10 -3 0
-8 -4 -11 -10z"/>
<path d="M1081 1894 c1 -21 16 -47 21 -38 4 5 0 18 -8 29 -8 10 -14 15 -13 9z"/>
<path d="M3200 1891 c0 -6 5 -13 10 -16 6 -3 10 1 10 9 0 9 -4 16 -10 16 -5 0
-10 -4 -10 -9z"/>
<path d="M4880 1890 c0 -5 5 -10 10 -10 6 0 10 5 10 10 0 6 -4 10 -10 10 -5 0
-10 -4 -10 -10z"/>
<path d="M995 1880 c-3 -5 1 -10 10 -10 9 0 13 5 10 10 -3 6 -8 10 -10 10 -2
0 -7 -4 -10 -10z"/>
<path d="M1021 1844 c0 -11 3 -14 6 -6 3 7 2 16 -1 19 -3 4 -6 -2 -5 -13z"/>
<path d="M2445 1850 c-3 -5 -1 -10 4 -10 6 0 11 5 11 10 0 6 -2 10 -4 10 -3 0
-8 -4 -11 -10z"/>
<path d="M1155 1830 c-3 -5 -1 -10 4 -10 6 0 11 5 11 10 0 6 -2 10 -4 10 -3 0
-8 -4 -11 -10z"/>
<path d="M1105 1820 c3 -5 8 -10 11 -10 2 0 4 5 4 10 0 6 -5 10 -11 10 -5 0
-7 -4 -4 -10z"/>
<path d="M2075 1819 c-9 -14 1 -22 30 -24 30 -1 31 3 8 21 -22 16 -30 17 -38
3z"/>
<path d="M2375 1820 c3 -5 8 -10 11 -10 2 0 4 5 4 10 0 6 -5 10 -11 10 -5 0
-7 -4 -4 -10z"/>
<path d="M2891 1814 c0 -11 3 -14 6 -6 3 7 2 16 -1 19 -3 4 -6 -2 -5 -13z"/>
<path d="M2405 1810 c-3 -5 -2 -10 4 -10 5 0 13 5 16 10 3 6 2 10 -4 10 -5 0
-13 -4 -16 -10z"/>
<path d="M2535 1810 c-3 -5 1 -10 9 -10 9 0 16 5 16 10 0 6 -4 10 -9 10 -6 0
-13 -4 -16 -10z"/>
<path d="M2285 1799 c-4 -6 -5 -13 -2 -16 7 -7 27 6 27 18 0 12 -17 12 -25 -2z"/>
<path d="M1065 1790 c3 -5 8 -10 11 -10 2 0 4 5 4 10 0 6 -5 10 -11 10 -5 0
-7 -4 -4 -10z"/>
<path d="M2870 1791 c0 -5 5 -13 10 -16 6 -3 10 -2 10 4 0 5 -4 13 -10 16 -5
3 -10 2 -10 -4z"/>
<path d="M1301 1764 c-12 -27 -7 -45 8 -28 14 14 23 54 13 54 -5 0 -14 -12
-21 -26z"/>
<path d="M2465 1780 c-4 -7 -19 -8 -37 -4 -27 5 -29 4 -17 -9 8 -8 19 -13 25
-10 6 2 17 -3 24 -11 15 -19 30 -12 30 14 0 22 -16 35 -25 20z"/>
<path d="M1146 1751 c-28 -31 -15 -46 17 -21 15 12 27 26 27 31 0 16 -26 10
-44 -10z"/>
<path d="M2197 1749 c4 -13 8 -18 11 -10 2 7 -1 18 -6 23 -8 8 -9 4 -5 -13z"/>
<path d="M2275 1749 c-11 -17 1 -21 15 -4 8 9 8 15 2 15 -6 0 -14 -5 -17 -11z"/>
<path d="M995 1741 c-6 -11 9 -23 19 -14 9 9 7 23 -3 23 -6 0 -12 -4 -16 -9z"/>
<path d="M1345 1740 c-3 -5 -1 -10 4 -10 6 0 11 5 11 10 0 6 -2 10 -4 10 -3 0
-8 -4 -11 -10z"/>
<path d="M1845 1740 c3 -5 8 -10 11 -10 2 0 4 5 4 10 0 6 -5 10 -11 10 -5 0
-7 -4 -4 -10z"/>
<path d="M2150 1725 c0 -8 5 -15 10 -15 6 0 10 7 10 15 0 8 -4 15 -10 15 -5 0
-10 -7 -10 -15z"/>
<path d="M2202 1710 l-23 -29 28 2 c30 2 58 30 48 47 -11 17 -29 10 -53 -20z"/>
<path d="M780 1720 c0 -5 5 -10 11 -10 5 0 7 5 4 10 -3 6 -8 10 -11 10 -2 0
-4 -4 -4 -10z"/>
<path d="M1030 1720 c0 -5 5 -10 10 -10 6 0 10 5 10 10 0 6 -4 10 -10 10 -5 0
-10 -4 -10 -10z"/>
<path d="M1745 1720 c3 -5 8 -10 11 -10 2 0 4 5 4 10 0 6 -5 10 -11 10 -5 0
-7 -4 -4 -10z"/>
<path d="M1922 1719 c2 -7 16 -13 31 -13 35 -2 29 18 -7 22 -19 2 -27 -1 -24
-9z"/>
<path d="M740 1690 c0 -5 5 -10 10 -10 6 0 10 5 10 10 0 6 -4 10 -10 10 -5 0
-10 -4 -10 -10z"/>
<path d="M1392 1689 c2 -6 8 -10 13 -10 5 0 11 4 13 10 2 6 -4 11 -13 11 -9 0
-15 -5 -13 -11z"/>
<path d="M2303 1690 c-29 -12 -56 -60 -34 -60 5 0 13 9 16 20 5 16 12 19 27
14 17 -5 20 -3 15 10 -7 17 8 22 18 6 4 -6 11 -8 16 -4 14 8 1 24 -19 23 -9 0
-27 -4 -39 -9z"/>
<path d="M783 1675 c-8 -22 6 -33 17 -15 13 20 12 30 0 30 -6 0 -13 -7 -17
-15z"/>
<path d="M836 1675 c-3 -8 -1 -15 4 -15 13 0 22 18 11 24 -5 3 -11 -1 -15 -9z"/>
<path d="M1002 1684 c3 -3 -5 -16 -18 -29 -29 -30 -31 -49 -4 -40 23 7 25 2 8
-25 -18 -28 -5 -34 32 -15 22 12 29 20 22 27 -6 6 -8 16 -6 23 3 7 1 16 -5 20
-6 3 -11 15 -11 26 0 10 -5 19 -12 19 -6 0 -9 -3 -6 -6z"/>
<path d="M1226 1671 c-26 -29 -2 -34 24 -6 18 19 20 25 8 25 -8 0 -23 -9 -32
-19z"/>
<path d="M1292 1679 c2 -7 10 -15 17 -17 8 -3 12 1 9 9 -2 7 -10 15 -17 17 -8
3 -12 -1 -9 -9z"/>
<path d="M2125 1680 c3 -5 10 -10 16 -10 5 0 9 5 9 10 0 6 -7 10 -16 10 -8 0
-12 -4 -9 -10z"/>
<path d="M2430 1680 c0 -5 5 -10 11 -10 5 0 7 5 4 10 -3 6 -8 10 -11 10 -2 0
-4 -4 -4 -10z"/>
<path d="M3203 1657 c-23 -38 -21 -47 9 -47 12 0 16 4 12 11 -3 6 -1 15 7 19
9 6 10 14 3 31 -10 22 -11 21 -31 -14z"/>
<path d="M910 1666 c0 -8 -3 -23 -6 -33 -4 -14 -1 -13 15 6 25 27 27 41 6 41
-8 0 -15 -6 -15 -14z"/>
<path d="M950 1654 c0 -8 5 -12 10 -9 6 4 8 11 5 16 -9 14 -15 11 -15 -7z"/>
<path d="M1420 1660 c0 -5 5 -10 10 -10 6 0 10 5 10 10 0 6 -4 10 -10 10 -5 0
-10 -4 -10 -10z"/>
<path d="M2110 1656 c0 -8 5 -18 10 -21 6 -3 10 1 10 9 0 8 -4 18 -10 21 -5 3
-10 -1 -10 -9z"/>
<path d="M690 1649 c0 -5 5 -7 10 -4 6 3 10 8 10 11 0 2 -4 4 -10 4 -5 0 -10
-5 -10 -11z"/>
<path d="M3282 1648 c7 -19 38 -22 38 -4 0 10 -9 16 -21 16 -12 0 -19 -5 -17
-12z"/>
<path d="M1255 1639 c-4 -6 -5 -13 -2 -16 7 -7 27 6 27 18 0 12 -17 12 -25 -2z"/>
<path d="M2230 1639 c0 -5 5 -7 10 -4 6 3 10 8 10 11 0 2 -4 4 -10 4 -5 0 -10
-5 -10 -11z"/>
<path d="M2515 1640 c3 -5 -1 -10 -9 -10 -9 0 -16 -4 -16 -10 0 -5 7 -10 15
-10 8 0 15 2 15 4 0 2 3 11 6 20 3 9 1 16 -6 16 -6 0 -8 -4 -5 -10z"/>
<path d="M3012 1638 c-18 -18 -16 -44 2 -29 8 6 18 11 22 10 21 -3 26 2 14 16
-15 18 -22 19 -38 3z"/>
<path d="M3820 1634 c0 -14 3 -14 15 -4 8 7 15 14 15 16 0 2 -7 4 -15 4 -8 0
-15 -7 -15 -16z"/>
<path d="M757 1622 c-23 -25 -22 -29 13 -34 31 -5 36 4 24 36 -8 21 -17 20
-37 -2z"/>
<path d="M1395 1620 c-3 -5 1 -10 10 -10 9 0 13 5 10 10 -3 6 -8 10 -10 10 -2
0 -7 -4 -10 -10z"/>
<path d="M3380 1606 c-16 -30 -7 -56 19 -56 27 0 33 13 17 36 -10 13 -11 23
-4 31 8 10 6 13 -4 13 -8 0 -20 -11 -28 -24z"/>
<path d="M3911 1616 c-8 -10 -9 -16 -1 -21 5 -3 13 1 16 10 9 22 -1 29 -15 11z"/>
<path d="M670 1610 c18 -12 30 -13 30 -2 0 4 -10 9 -22 9 -18 2 -20 0 -8 -7z"/>
<path d="M3150 1610 c0 -5 5 -10 11 -10 5 0 7 5 4 10 -3 6 -8 10 -11 10 -2 0
-4 -4 -4 -10z"/>
<path d="M1210 1600 c0 -5 5 -10 10 -10 6 0 10 5 10 10 0 6 -4 10 -10 10 -5 0
-10 -4 -10 -10z"/>
<path d="M2355 1600 c-3 -5 -1 -10 4 -10 6 0 11 5 11 10 0 6 -2 10 -4 10 -3 0
-8 -4 -11 -10z"/>
<path d="M3235 1600 c-8 -13 14 -42 26 -34 5 3 9 14 9 25 0 20 -24 26 -35 9z"/>
<path d="M1615 1590 c-3 -5 1 -10 9 -10 9 0 16 5 16 10 0 6 -4 10 -9 10 -6 0
-13 -4 -16 -10z"/>
<path d="M1225 1560 c-3 -5 -1 -10 4 -10 6 0 11 5 11 10 0 6 -2 10 -4 10 -3 0
-8 -4 -11 -10z"/>
<path d="M2370 1560 c0 -5 5 -10 11 -10 5 0 7 5 4 10 -3 6 -8 10 -11 10 -2 0
-4 -4 -4 -10z"/>
<path d="M1273 1553 c-15 -5 -18 -33 -4 -33 13 0 33 28 24 33 -4 2 -14 2 -20
0z"/>
<path d="M3492 1518 c-12 -18 -19 -34 -17 -37 7 -6 44 42 45 57 0 19 -6 14
-28 -20z"/>
<path d="M3625 1540 c-3 -5 -1 -10 4 -10 6 0 11 5 11 10 0 6 -2 10 -4 10 -3 0
-8 -4 -11 -10z"/>
<path d="M3420 1505 c-19 -23 -8 -37 18 -20 12 9 22 20 22 26 0 14 -26 11 -40
-6z"/>
<path d="M4150 1500 c0 -5 5 -10 11 -10 5 0 7 5 4 10 -3 6 -8 10 -11 10 -2 0
-4 -4 -4 -10z"/>
<path d="M4050 1491 c0 -10 30 -24 37 -17 3 3 2 9 -2 15 -8 13 -35 15 -35 2z"/>
<path d="M2510 1350 c0 -5 5 -10 10 -10 6 0 10 5 10 10 0 6 -4 10 -10 10 -5 0
-10 -4 -10 -10z"/>
</g>
</svg>
